<?xml version="1.0" encoding="UTF-8"?>
<svg width="1218pt" height="1280pt" version="1.0" viewBox="0 0 1218 1280" xmlns="http://www.w3.org/2000/svg">
<g transform="translate(0 1280) scale(.1 -.1)">
<path d="m5497 11774c-323-560-586-1019-584-1021 3-2 52 10 110 26 697 196 1373 197 2106 5 73-19 135-33 137-31 5 5-1168 2037-1176 2037-3 0-270-457-593-1016z"/>
<path d="m2330 11556c0-15 235-2267 242-2320 2-14 16-3 53 45 376 485 825 853 1365 1118 125 62 365 163 484 205 10 3 17 8 15 10-6 6-2122 948-2141 953-12 4-18 0-18-11z"/>
<path d="m8758 11092c-587-262-1064-479-1060-482 4-4 54-24 112-45 667-241 1266-679 1722-1256 53-68 74-88 76-73 7 54 242 2305 242 2318 0 9-6 16-12 15-7 0-493-215-1080-477z"/>
<path d="m5785 10583c-1222-100-2313-693-3040-1653-835-1103-1071-2551-630-3867 315-939 960-1741 1809-2251 556-334 1140-525 1799-588 213-20 641-15 847 11 612 75 1167 265 1686 577 999 599 1707 1599 1943 2746 58 279 82 529 82 842 0 248-10 391-41 607-186 1271-944 2385-2060 3028-385 222-837 391-1280 479-264 52-433 68-760 71-168 1-327 1-355-2z"/>
<path d="m2260 8859c-19-5-323-70-675-145-1211-256-1579-335-1581-337-1-1 354-397 790-880l791-878 12 181c13 212 26 315 59 500 94 515 302 1024 603 1474 26 39 51 77 55 84 8 14-3 14-54 1z"/>
<path d="m9866 8858c4-7 38-58 74-113 103-154 175-281 265-469 221-457 340-922 375-1466 6-96 12-179 13-183s358 387 794 870c435 483 790 879 789 880-1 2-107 25-641 138-88 19-234 50-325 69s-410 87-710 151c-300 63-564 119-587 125-53 13-56 13-47-2z"/>
<path d="m793 5304c-435-484-790-880-789-881s545-117 1376-293c648-138 886-188 914-196 34-8 38-18-54 121-103 154-175 282-265 469-220 455-339 919-375 1461-6 94-12 176-13 184-1 7-358-382-794-865z"/>
<path d="m10582 5987c-45-709-251-1330-640-1927-44-69-79-126-78-127 2-2 43 6 92 17s514 110 1034 220 1e3 212 1068 227l123 26-34 36c-19 20-362 401-762 846-400 446-742 825-759 843l-32 33-12-194z"/>
<path d="m2451 2411c-68-645-121-1174-118-1177s489 210 1081 473c591 263 1072 481 1068 484s-65 27-136 53c-678 251-1245 674-1741 1301l-31 38-123-1172z"/>
<path d="m9535 3495c-148-190-298-351-470-504-396-353-788-582-1360-796-17-6-15-9 20-25 22-9 507-225 1078-479 571-255 1041-460 1044-457 4 4-227 2252-240 2336-1 8-33-26-72-75z"/>
<path d="m4911 2043c10-26 1174-2033 1179-2033s1169 2007 1179 2033c4 11 11 13-198-43-338-89-606-123-966-124-358 0-657 37-990 124-207 54-208 55-204 43z"/>
</g>
<style type="">
    path { fill: #cfcfcf; }
  </style>
</svg>
